<svg width="277" height="80" viewBox="0 0 277 80" fill="none" xmlns="http://www.w3.org/2000/svg">
<path d="M94.5596 61.3048V18.6934C94.5596 16.7263 94.9974 15.2388 95.8732 14.2307C96.3133 13.7295 96.8603 13.3335 97.4738 13.0719C98.0873 12.8103 98.7517 12.6898 99.418 12.7192C100.09 12.693 100.76 12.813 101.381 13.0709C102.003 13.3287 102.561 13.7183 103.017 14.2128C103.928 15.2086 104.384 16.7022 104.385 18.6934V61.3048C104.385 63.2966 103.923 64.7902 102.999 65.7854C102.544 66.2768 101.989 66.6645 101.371 66.9222C100.753 67.1799 100.087 67.3016 99.418 67.279C98.7547 67.2999 98.0951 67.1717 97.4878 66.9039C96.8806 66.636 96.3411 66.2354 95.9092 65.7314C95.0095 64.7001 94.5596 63.2246 94.5596 61.3048Z" fill="#0D1126"/>
<path d="M119.499 22.7618C118.214 22.7916 116.963 22.3427 115.991 21.5022C115.019 20.6626 114.533 19.4749 114.533 17.9392C114.515 17.2919 114.64 16.6487 114.898 16.0549C115.156 15.4611 115.541 14.931 116.026 14.5022C116.968 13.6234 118.211 13.1402 119.499 13.1526C120.737 13.1407 121.938 13.5751 122.882 14.3762C123.866 15.1922 124.358 16.3798 124.358 17.9392C124.358 19.4508 123.878 20.6324 122.918 21.4841C121.981 22.3274 120.76 22.784 119.499 22.7618ZM124.358 32.9108V61.3063C124.358 63.274 123.89 64.7615 122.954 65.769C122.504 66.262 121.952 66.6522 121.337 66.9131C120.723 67.1739 120.059 67.2992 119.391 67.2806C118.728 67.3014 118.068 67.1732 117.461 66.9054C116.854 66.6376 116.314 66.2369 115.883 65.733C114.983 64.7017 114.533 63.2261 114.533 61.3063V33.1986C114.533 31.2552 114.983 29.7917 115.883 28.808C116.326 28.3225 116.869 27.9391 117.475 27.6843C118.08 27.4295 118.734 27.3094 119.391 27.3324C120.056 27.3128 120.717 27.4341 121.331 27.6885C121.945 27.9428 122.498 28.3244 122.954 28.808C123.89 29.792 124.358 31.1596 124.358 32.9108Z" fill="#0D1126"/>
<path d="M141.453 33.4511L149.406 55.7644L157.971 32.4794C158.643 30.6078 159.303 29.2822 159.951 28.5025C160.599 27.7231 161.582 27.3333 162.902 27.3329C163.49 27.3213 164.074 27.4267 164.621 27.6429C165.168 27.8591 165.666 28.1819 166.087 28.5924C166.498 28.9591 166.827 29.4081 167.054 29.9103C167.28 30.4125 167.398 30.9568 167.4 31.5076C167.388 32.0195 167.309 32.5276 167.166 33.0192C167.019 33.5693 166.838 34.1101 166.626 34.6387C166.423 35.1425 166.189 35.7184 165.925 36.3662L156.496 59.7593C156.232 60.4312 155.89 61.283 155.47 62.3145C155.104 63.2464 154.633 64.1338 154.067 64.9597C153.574 65.6712 152.92 66.2568 152.159 66.6692C151.307 67.0993 150.361 67.3096 149.406 67.281C148.015 67.281 146.905 66.9631 146.077 66.3273C145.321 65.7735 144.694 65.0611 144.242 64.2399C143.846 63.4842 143.18 61.9906 142.245 59.7592L132.888 36.6181C132.672 36.0423 132.45 35.4665 132.222 34.8906C131.994 34.3153 131.801 33.7263 131.646 33.1271C131.504 32.6231 131.425 32.1032 131.412 31.5796C131.423 30.8694 131.636 30.1769 132.024 29.5822C132.444 28.9102 133.026 28.3536 133.715 27.9626C134.424 27.5459 135.232 27.3283 136.055 27.3329C137.686 27.3329 138.807 27.8007 139.42 28.7364C140.031 29.6721 140.709 31.2437 141.453 33.4511Z" fill="#0D1126"/>
<path d="M207.13 48.0249V61.089C207.13 63.1528 206.663 64.7004 205.727 65.7316C205.259 66.2439 204.685 66.6478 204.044 66.9151C203.404 67.1824 202.713 67.3067 202.02 67.2792C201.34 67.303 200.664 67.1766 200.039 66.9091C199.414 66.6416 198.855 66.2396 198.403 65.7316C197.479 64.7003 197.017 63.1528 197.018 61.089V45.4337C197.044 43.511 196.96 41.5884 196.765 39.6754C196.653 38.443 196.177 37.2718 195.398 36.3104C194.654 35.4349 193.478 34.997 191.871 34.9968C188.656 34.9968 186.539 36.1004 185.519 38.3078C184.499 40.5155 183.989 43.6826 183.99 47.809V61.089C183.99 63.1286 183.528 64.6702 182.604 65.7137C182.149 66.2288 181.586 66.6364 180.954 66.9071C180.322 67.1779 179.638 67.305 178.952 67.2792C178.265 67.3003 177.583 67.1711 176.952 66.9007C176.321 66.6302 175.757 66.2251 175.299 65.7137C174.351 64.67 173.877 63.1284 173.877 61.089V32.9814C173.877 31.1341 174.303 29.7305 175.154 28.7706C175.574 28.297 176.094 27.9222 176.676 27.6733C177.257 27.4244 177.887 27.3075 178.52 27.3311C179.143 27.3144 179.763 27.4255 180.342 27.6576C180.92 27.8897 181.445 28.2379 181.884 28.6806C182.784 29.5804 183.234 30.822 183.234 32.4055V33.3413C184.723 31.4763 186.587 29.9439 188.704 28.8426C190.723 27.8662 192.94 27.3733 195.182 27.403C197.397 27.3422 199.59 27.8502 201.552 28.8786C203.398 29.9338 204.918 31.4781 205.943 33.3413C207.392 31.4978 209.205 29.9725 211.269 28.8606C213.221 27.8756 215.381 27.3756 217.567 27.403C220.254 27.403 222.569 27.9309 224.513 28.9866C226.41 29.9952 227.936 31.5841 228.867 33.5212C229.707 35.297 230.127 38.0922 230.127 41.9067V61.089C230.127 63.1528 229.659 64.7004 228.723 65.7316C228.255 66.2439 227.681 66.6478 227.041 66.9151C226.401 67.1824 225.71 67.3067 225.016 67.2792C224.33 67.3002 223.648 67.171 223.017 66.9006C222.386 66.6301 221.822 66.2251 221.364 65.7137C220.415 64.67 219.942 63.1284 219.942 61.089V44.5699C219.966 42.8743 219.876 41.179 219.672 39.4955C219.528 38.303 219.019 37.1841 218.215 36.2924C217.423 35.4287 216.223 34.9968 214.616 34.9967C213.299 35.0033 212.014 35.4045 210.927 36.1485C209.761 36.9187 208.823 37.9875 208.21 39.2435C207.49 40.899 207.13 43.8261 207.13 48.0249Z" fill="#0D1126"/>
<path d="M276.444 47.3061C276.473 50.0651 276.01 52.8071 275.077 55.4037C274.222 57.7831 272.873 59.9542 271.118 61.7738C269.371 63.5626 267.26 64.9556 264.928 65.8586C262.343 66.8396 259.595 67.322 256.831 67.2802C254.088 67.3224 251.362 66.8336 248.805 65.8406C246.472 64.9152 244.362 63.5046 242.616 61.7022C240.869 59.8997 239.526 57.7467 238.674 55.3857C237.748 52.7941 237.291 50.0581 237.325 47.3061C237.292 44.5233 237.755 41.7569 238.692 39.1365C239.538 36.7716 240.875 34.6128 242.615 32.8023C244.362 31.0222 246.474 29.641 248.805 28.7536C254.012 26.852 259.725 26.8584 264.928 28.7715C267.276 29.6738 269.4 31.0739 271.155 32.8756C272.91 34.6773 274.254 36.8378 275.095 39.2085C276.02 41.8066 276.477 44.5483 276.444 47.3061ZM266.583 47.3061C266.583 43.2994 265.702 40.1804 263.938 37.9488C262.175 35.7175 259.806 34.6018 256.831 34.6018C255.026 34.5678 253.255 35.0892 251.756 36.0954C250.213 37.1933 249.034 38.7291 248.373 40.5041C247.541 42.6732 247.138 44.9833 247.186 47.3061C247.137 49.6039 247.535 51.8893 248.355 54.0361C249.016 55.8012 250.18 57.334 251.702 58.4448C253.208 59.4814 255.003 60.0167 256.831 59.9743C259.805 59.9743 262.174 58.8526 263.938 56.6093C265.702 54.3662 266.583 51.2651 266.583 47.3061Z" fill="#0D1126"/>
<path d="M39.9989 80C62.0897 80 79.9978 62.0914 79.9978 40C79.9978 17.9086 62.0897 0 39.9989 0C17.9081 0 0 17.9086 0 40C0 62.0914 17.9081 80 39.9989 80Z" fill="url(#paint0_linear_71_6433)"/>
<path d="M39.9992 27.8862C39.7433 27.8858 39.491 27.8252 39.2628 27.7094C39.0346 27.5935 38.8367 27.4257 38.6853 27.2194L38.4546 26.9055C37.3885 25.4572 32.0674 18.0373 32.0674 14.2701C32.0674 12.1664 32.9031 10.1488 34.3906 8.66119C35.8782 7.17361 37.8957 6.33789 39.9994 6.33789C42.1031 6.33789 44.1206 7.17361 45.6082 8.66119C47.0957 10.1488 47.9314 12.1664 47.9314 14.2701C47.9314 18.0374 42.6105 25.4572 41.5437 26.9064L41.3125 27.2213C41.1605 27.4269 40.9627 27.594 40.7347 27.7094C40.5066 27.8249 40.2548 27.8854 39.9992 27.8862ZM41.0764 25.4596L41.0794 25.4637L41.0764 25.4596ZM39.9992 9.30677C38.6834 9.30832 37.4219 9.83175 36.4915 10.7622C35.5611 11.6927 35.0378 12.9543 35.0364 14.2701C35.0364 16.1856 37.8047 20.8028 39.9994 23.9609C42.1948 20.8019 44.9624 16.1854 44.9624 14.2701C44.9609 12.9542 44.4375 11.6927 43.5071 10.7622C42.5766 9.8317 41.3151 9.30828 39.9992 9.30677Z" fill="white"/>
<path d="M66.2338 29.697C66.1374 29.9696 65.9273 30.024 65.6609 30.0442C60.9317 30.4025 56.31 31.242 51.9408 33.1748C49.0964 34.3849 46.5363 36.1762 44.4246 38.4336C44.1824 38.6978 43.9533 38.9741 43.7206 39.2469C43.5396 39.459 43.3175 39.5095 43.1515 39.3711C42.9834 39.231 42.99 39.012 43.1722 38.7889C44.9453 36.6488 47.1158 34.8721 49.564 33.5566C52.2941 32.0926 55.2187 31.0246 58.2498 30.3848C60.7104 29.8517 63.2057 29.4939 65.717 29.3139C65.8295 29.2934 65.9455 29.3166 66.0415 29.3787C66.1375 29.4408 66.2063 29.5371 66.2338 29.6481L66.2338 29.697Z" fill="white"/>
<path d="M43.3541 40.9285C42.9334 40.9278 42.5264 40.7782 42.2053 40.5062C42.0164 40.3458 41.8615 40.1492 41.75 39.9278C41.6384 39.7065 41.5724 39.4651 41.5559 39.2178C41.5393 38.9705 41.5726 38.7224 41.6537 38.4882C41.7347 38.254 41.862 38.0384 42.0278 37.8543C43.9226 35.5702 46.2391 33.672 48.8509 32.2629C51.7022 30.7297 54.7581 29.6119 57.9257 28.9435C60.4544 28.3949 63.0188 28.0266 65.5996 27.8413C66.038 27.7936 66.4794 27.8989 66.8491 28.1393C67.2188 28.3797 67.494 28.7405 67.6282 29.1606L67.7112 29.3974V29.9516L67.626 30.1913C67.4912 30.5764 67.2407 30.9105 66.9089 31.148C66.5771 31.3854 66.18 31.5146 65.772 31.5179C60.4766 31.919 56.2712 32.8749 52.5383 34.5264C49.8784 35.6508 47.4848 37.3224 45.5133 39.4326C45.3409 39.6207 45.1753 39.8162 45.0097 40.0113L44.8435 40.207C44.6626 40.4284 44.4357 40.6076 44.1785 40.7322C43.9212 40.8568 43.6399 40.9238 43.3541 40.9285Z" fill="white"/>
<path d="M40.1142 67.736C40.6861 66.5484 41.1799 65.3249 41.5926 64.0731C42.491 61.4397 43.0057 58.6909 43.1209 55.9109C43.2954 52.4021 42.5832 48.9058 41.0501 45.7448C40.1015 43.8361 38.8616 42.0867 37.3748 40.5593C35.1481 38.3044 32.5637 36.4333 29.7264 35.0217C26.0539 33.1821 22.1731 31.7916 18.1679 30.8804C16.8622 30.5663 15.5414 30.3144 14.2276 30.0338C14.1798 30.0236 14.1324 30.0118 14.085 29.9999C14.0363 29.995 13.9891 29.9802 13.9464 29.9562C13.9038 29.9323 13.8665 29.8997 13.837 29.8606C13.8076 29.8215 13.7865 29.7768 13.7752 29.7292C13.7639 29.6815 13.7626 29.6321 13.7713 29.5839C13.7792 29.5352 13.7974 29.4887 13.8247 29.4476C13.852 29.4065 13.8878 29.3717 13.9297 29.3455C13.9715 29.3194 14.0185 29.3025 14.0674 29.296C14.1164 29.2895 14.1661 29.2935 14.2134 29.3078C14.6467 29.3815 15.0781 29.4672 15.5089 29.5551C19.195 30.2726 22.8092 31.3198 26.3079 32.6841C29.5303 33.9208 32.5568 35.6172 35.2935 37.7205C38.4044 40.1736 40.8383 43.1508 42.324 46.8544C43.2678 49.221 43.777 51.7384 43.8274 54.2858C43.9474 59.1583 42.7911 63.7445 40.7202 68.1251C40.6576 68.2575 40.5891 68.3874 40.5181 68.5156C40.3496 68.8199 40.0563 68.8631 39.8563 68.5773C38.1389 66.275 37.1043 63.5357 36.871 60.6729C36.393 56.7534 36.9245 52.9318 38.0721 49.187C38.5221 47.7186 39.1056 46.2912 39.6304 44.8459C39.6569 44.7603 39.6989 44.6802 39.7543 44.6097C39.805 44.5438 39.8789 44.4997 39.9611 44.4863C40.0432 44.473 40.1273 44.4916 40.1962 44.5381C40.2373 44.5617 40.2734 44.5932 40.3022 44.6308C40.3311 44.6684 40.3522 44.7113 40.3644 44.7571C40.3766 44.803 40.3795 44.8507 40.3731 44.8977C40.3667 44.9447 40.3511 44.9899 40.3271 45.0308C40.0903 45.6285 39.8392 46.2208 39.6123 46.8223C38.6917 49.2104 38.0398 51.6937 37.6689 54.2261C37.209 57.166 37.3368 60.168 38.0449 63.0582C38.4307 64.636 39.075 66.139 39.9517 67.5064C39.9953 67.5728 40.0434 67.6363 40.1142 67.736Z" fill="white"/>
<path d="M45.3025 54.2471C45.2464 51.5236 44.7021 48.8323 43.6955 46.3011C42.1776 42.523 39.7282 39.335 36.21 36.5589C33.3606 34.3697 30.2109 32.6023 26.8577 31.3111C23.2762 29.9133 19.576 28.8413 15.802 28.1082C15.3566 28.0154 14.9076 27.9264 14.4585 27.8484C13.9935 27.7679 13.5152 27.8617 13.115 28.1119C12.8138 28.3097 12.5776 28.5918 12.4359 28.9231C12.2941 29.2544 12.2532 29.6201 12.3181 29.9745C12.383 30.329 12.551 30.6564 12.801 30.9159C13.051 31.1754 13.3719 31.3554 13.7237 31.4336C13.7868 31.4447 13.8536 31.4632 13.9204 31.4781C14.336 31.5672 14.7554 31.6525 15.1711 31.7379C16.0469 31.9197 16.9524 32.109 17.8246 32.3131C21.7132 33.1979 25.4812 34.5473 29.0473 36.3325C31.7416 37.6699 34.1958 39.4445 36.3102 41.584C37.0583 42.3559 37.7422 43.1875 38.3551 44.0706C38.3116 44.1586 38.2731 44.2491 38.24 44.3415C38.0842 44.7758 37.9209 45.21 37.7576 45.6405C37.3753 46.65 36.9856 47.6892 36.659 48.7543C35.3453 53.0446 34.937 57.0009 35.4046 60.8532C35.6584 63.2128 36.3587 65.5026 37.4681 67.6004C37.8017 68.193 38.1697 68.7655 38.5703 69.3151L38.6446 69.4264C38.8058 69.6634 39.019 69.8604 39.2679 70.0025C39.5168 70.1446 39.7948 70.2281 40.0808 70.2466C40.2775 70.2392 40.5224 70.2058 40.5595 70.2021H40.5633C40.8284 70.1371 41.0768 70.0169 41.2923 69.8493C41.5078 69.6818 41.6856 69.4706 41.8139 69.2297C41.8993 69.0738 41.9809 68.9142 42.0552 68.7547C44.3598 63.8779 45.4249 59.1312 45.3025 54.2471ZM42.0885 56.7485C42.0885 61.0277 41.3574 65.5778 39.9991 65.5778C38.6408 65.5778 37.9097 61.0277 37.9097 56.7485C37.9097 52.4656 38.6408 47.9193 39.9991 47.9193C41.3574 47.9193 42.0886 52.4656 42.0886 56.7485L42.0885 56.7485Z" fill="white"/>
<path d="M38.3549 44.0723C38.3549 44.0723 40.359 47.1639 40.8993 48.6999C40.8993 48.6999 40.5107 47.8955 39.999 47.9209C39.999 47.9209 39.0276 47.7056 38.3726 51.0929L36.0537 50.9727C36.5979 48.6041 37.3685 46.2934 38.3549 44.0723Z" fill="url(#paint1_linear_71_6433)"/>
<defs>
<linearGradient id="paint0_linear_71_6433" x1="0" y1="40" x2="79.9978" y2="40" gradientUnits="userSpaceOnUse">
<stop stop-color="#F02F32"/>
<stop offset="0.59516" stop-color="#E22357"/>
<stop offset="1" stop-color="#DA1D6C"/>
</linearGradient>
<linearGradient id="paint1_linear_71_6433" x1="36.0537" y1="47.5826" x2="40.8993" y2="47.5826" gradientUnits="userSpaceOnUse">
<stop stop-color="white"/>
<stop offset="0.2813" stop-color="#FCFCFC"/>
<stop offset="0.46677" stop-color="#F3F3F3"/>
<stop offset="0.62463" stop-color="#E4E4E4"/>
<stop offset="0.76698" stop-color="#CFCFCF"/>
<stop offset="0.89764" stop-color="#B4B4B4"/>
<stop offset="1" stop-color="#999999"/>
</linearGradient>
</defs>
</svg>
